<?xml version="1.0" encoding="UTF-8"?>
<svg xmlns="http://www.w3.org/2000/svg" height="16px" viewBox="0 0 16 16" width="16px">
  <path fill-rule="evenodd" fill="#222222"
        d="m 5 1 c -1.65625 0 -3 1.34375 -3 3 v 9 c 0 1.65625 1.34375 3 3 3 h 6 c 1.65625 0 3 -1.34375 3 -3 v -6 c 0 -0.90625 -0.359375 -1.773438 -1 -2.414062 l -2.585938 -2.585938 c -0.640624 -0.640625 -1.507812 -1 -2.414062 -1 z m 0.5 1 c -1.380208 0 -2.5 1.164583 -2.5 2.6 v 7.8 c 0 1.435417 1.119792 2.6 2.5 2.6 h 5 c 1.380208 0 2.5 -1.164583 2.5 -2.6 v -5.2 c 0 -0.785417 -0.299479 -1.536979 -0.833333 -2.092187 l -2.154948 -2.241813 c -0.533853 -0.555208 -1.256510 -0.866667 -2.011719 -0.866667 z"/>
  <path fill="#222222"
        d="m 5 4 v 1 h 3 v -1 z m 0 2 v 1 h 3 v -1 z m 0 2 v 1 h 6 v -1 z m 0 2 v 1 h 6 v -1 z m 0 2 v 1 h 6 v -1 z"/>
</svg>
