<?xml version="1.0" encoding="UTF-8"?>
<svg xmlns="http://www.w3.org/2000/svg" height="16px" viewBox="0 0 16 16" width="16px">
  <rect fill="#222222" x="1.5" y="1.5" width="1" height="4" rx="0.325" ry="0.325"/>
  <rect fill="#222222" x="1.5" y="1.5" width="4" height="1" rx="0.325" ry="0.325"/>
  <rect fill="#222222" x="13.85" y="1.5" width="1" height="4" rx="0.325" ry="0.325"/>
  <rect fill="#222222" x="10.5" y="1.5" width="4" height="1" rx="0.325" ry="0.325"/>
  <rect fill="#222222" x="1.5" y="10.5" width="1" height="4" rx="0.325" ry="0.325"/>
  <rect fill="#222222" x="1.5" y="13.85" width="4" height="1" rx="0.325" ry="0.325"/>
  <rect fill="#222222" x="13.85" y="10.5" width="1" height="4" rx="0.325" ry="0.325"/>
  <rect fill="#222222" x="10.5" y="13.85" width="4" height="1" rx="0.325" ry="0.325"/>
  <rect fill="#222222" x="4.9" y="4.65" width="6.2" height="1.5" rx="0.4" ry="0.4"/>
  <rect fill="#222222" x="5.5" y="7" width="5" height="1.5" rx="0.4" ry="0.4"/>
  <rect fill="#222222" x="4.9" y="9.35" width="6.2" height="1.5" rx="0.4" ry="0.4"/>
</svg>
